<?xml version="1.0" encoding="UTF-8" standalone="no"?>
<!-- Created with Inkscape (http://www.inkscape.org/) -->

<svg
   xmlns:dc="http://purl.org/dc/elements/1.1/"
   xmlns:cc="http://creativecommons.org/ns#"
   xmlns:rdf="http://www.w3.org/1999/02/22-rdf-syntax-ns#"
   xmlns:svg="http://www.w3.org/2000/svg"
   xmlns="http://www.w3.org/2000/svg"
   xmlns:sodipodi="http://sodipodi.sourceforge.net/DTD/sodipodi-0.dtd"
   xmlns:inkscape="http://www.inkscape.org/namespaces/inkscape"
   width="100.72865mm"
   height="9.5480289mm"
   viewBox="0 0 100.72865 9.5480289"
   version="1.1"
   id="svg891"
   inkscape:version="0.92.2 (5c3e80d, 2017-08-06)"
   sodipodi:docname="hcr-logo-paths.svg">
  <defs
     id="defs885" />
  <sodipodi:namedview
     id="base"
     pagecolor="#ffffff"
     bordercolor="#666666"
     borderopacity="1.0"
     inkscape:pageopacity="1"
     inkscape:pageshadow="2"
     inkscape:zoom="0.98994949"
     inkscape:cx="170.9913"
     inkscape:cy="-266.86205"
     inkscape:document-units="mm"
     inkscape:current-layer="layer1"
     showgrid="false"
     fit-margin-top="0"
     fit-margin-left="0"
     fit-margin-right="0"
     fit-margin-bottom="0"
     inkscape:window-width="1920"
     inkscape:window-height="1017"
     inkscape:window-x="1912"
     inkscape:window-y="-8"
     inkscape:window-maximized="1" />
  <metadata
     id="metadata888">
    <rdf:RDF>
      <cc:Work
         rdf:about="">
        <dc:format>image/svg+xml</dc:format>
        <dc:type
           rdf:resource="http://purl.org/dc/dcmitype/StillImage" />
        <dc:title></dc:title>
      </cc:Work>
    </rdf:RDF>
  </metadata>
  <g
     inkscape:label="Layer 1"
     inkscape:groupmode="layer"
     id="layer1"
     transform="translate(-17.671388,-85.850989)">
    <g
       aria-label="HedgeCourt "
       style="font-style:normal;font-weight:normal;font-size:15.36700058px;line-height:125%;font-family:sans-serif;letter-spacing:0px;word-spacing:0px;display:inline;fill:#000000;fill-opacity:1;stroke:none;stroke-width:0.32014582px;stroke-linecap:butt;stroke-linejoin:miter;stroke-opacity:1"
       id="text878">
      <path
         d="m 17.672012,85.850989 h 1.936242 v 2.991442 h 1.516211 v -2.991442 h 1.936242 v 7.171266 h -1.936242 v -2.991443 h -1.516211 v 2.991443 h -1.936242 z"
         style="font-style:normal;font-variant:normal;font-weight:normal;font-stretch:normal;font-size:10.2446661px;font-family:'SF TransRobotics Condensed';-inkscape-font-specification:'SF TransRobotics Condensed, ';font-variant-ligatures:normal;font-variant-caps:normal;font-variant-numeric:normal;font-feature-settings:normal;text-align:start;letter-spacing:0.26458332px;writing-mode:lr-tb;text-anchor:start;stroke-width:0.32014582px"
         id="path1469"
         inkscape:connector-curvature="0" />
      <path
         d="m 23.979348,88.360932 q 0,-0.286851 0.194648,-0.501989 0.194649,-0.215138 0.450766,-0.215138 h 3.657345 q 0.256117,0 0.450766,0.215138 0.194648,0.215138 0.194648,0.501989 v 1.915752 q 0,0.286851 -0.194648,0.501989 -0.194649,0.215138 -0.450766,0.215138 H 25.91559 v 0.481499 h 3.011931 l -0.645414,1.546945 h -3.657345 q -0.256117,0 -0.450766,-0.215138 -0.194648,-0.215138 -0.194648,-0.501989 z m 3.011931,1.444498 V 89.200994 H 25.91559 v 0.604436 z"
         style="font-style:normal;font-variant:normal;font-weight:normal;font-stretch:normal;font-size:10.2446661px;font-family:'SF TransRobotics Condensed';-inkscape-font-specification:'SF TransRobotics Condensed, ';font-variant-ligatures:normal;font-variant-caps:normal;font-variant-numeric:normal;font-feature-settings:normal;text-align:start;letter-spacing:0.26458332px;writing-mode:lr-tb;text-anchor:start;stroke-width:0.32014582px"
         id="path1471"
         inkscape:connector-curvature="0" />
      <path
         d="m 29.683049,88.360932 q 0,-0.286851 0.194648,-0.501989 0.194649,-0.215138 0.450766,-0.215138 h 2.356273 v -1.792816 h 1.936242 v 7.171266 h -4.292515 q -0.256117,0 -0.450766,-0.215138 -0.194648,-0.215138 -0.194648,-0.501989 z m 3.001687,3.104134 v -2.264072 h -1.065445 v 2.264072 z"
         style="font-style:normal;font-variant:normal;font-weight:normal;font-stretch:normal;font-size:10.2446661px;font-family:'SF TransRobotics Condensed';-inkscape-font-specification:'SF TransRobotics Condensed, ';font-variant-ligatures:normal;font-variant-caps:normal;font-variant-numeric:normal;font-feature-settings:normal;text-align:start;letter-spacing:0.26458332px;writing-mode:lr-tb;text-anchor:start;stroke-width:0.32014582px"
         id="path1473"
         inkscape:connector-curvature="0" />
      <path
         d="m 35.533056,88.360932 q 0,-0.286851 0.184404,-0.501989 0.194648,-0.215138 0.46101,-0.215138 h 4.292515 v 7.038086 q 0,0.286851 -0.194649,0.501988 -0.194649,0.215138 -0.450765,0.215138 H 36.17847 l -0.645414,-1.557189 h 3.001687 V 93.022255 H 36.17847 q -0.266362,0 -0.46101,-0.215138 -0.184404,-0.215138 -0.184404,-0.501989 z m 3.001687,3.104134 v -2.264072 h -1.065445 v 2.264072 z"
         style="font-style:normal;font-variant:normal;font-weight:normal;font-stretch:normal;font-size:10.2446661px;font-family:'SF TransRobotics Condensed';-inkscape-font-specification:'SF TransRobotics Condensed, ';font-variant-ligatures:normal;font-variant-caps:normal;font-variant-numeric:normal;font-feature-settings:normal;text-align:start;letter-spacing:0.26458332px;writing-mode:lr-tb;text-anchor:start;stroke-width:0.32014582px"
         id="path1475"
         inkscape:connector-curvature="0" />
      <path
         d="m 41.400671,88.360932 q 0,-0.286851 0.194649,-0.501989 0.194648,-0.215138 0.450765,-0.215138 h 3.657346 q 0.256116,0 0.450765,0.215138 0.194649,0.215138 0.194649,0.501989 v 1.915752 q 0,0.286851 -0.194649,0.501989 -0.194649,0.215138 -0.450765,0.215138 h -2.366518 v 0.481499 h 3.011932 l -0.645414,1.546945 h -3.657346 q -0.256117,0 -0.450765,-0.215138 -0.194649,-0.215138 -0.194649,-0.501989 z m 3.011932,1.444498 v -0.604436 h -1.07569 v 0.604436 z"
         style="font-style:normal;font-variant:normal;font-weight:normal;font-stretch:normal;font-size:10.2446661px;font-family:'SF TransRobotics Condensed';-inkscape-font-specification:'SF TransRobotics Condensed, ';font-variant-ligatures:normal;font-variant-caps:normal;font-variant-numeric:normal;font-feature-settings:normal;text-align:start;letter-spacing:0.26458332px;writing-mode:lr-tb;text-anchor:start;stroke-width:0.32014582px"
         id="path1477"
         inkscape:connector-curvature="0" />
      <path
         d="m 47.247799,86.568115 q 0,-0.28685 0.194649,-0.501988 0.204893,-0.215138 0.450765,-0.215138 h 4.74328 l -0.645414,1.557189 h -2.807038 v 4.056888 h 3.452452 l -0.645414,1.557189 h -4.097866 q -0.245872,0 -0.450765,-0.204893 -0.194649,-0.215138 -0.194649,-0.512234 z"
         style="font-style:normal;font-variant:normal;font-weight:normal;font-stretch:normal;font-size:10.2446661px;font-family:'SF TransRobotics Condensed';-inkscape-font-specification:'SF TransRobotics Condensed, ';font-variant-ligatures:normal;font-variant-caps:normal;font-variant-numeric:normal;font-feature-settings:normal;text-align:start;letter-spacing:0.26458332px;writing-mode:lr-tb;text-anchor:start;stroke-width:0.32014582px"
         id="path1479"
         inkscape:connector-curvature="0" />
      <path
         d="m 53.495106,88.360932 q 0,-0.286851 0.194648,-0.501989 0.194649,-0.215138 0.450766,-0.215138 h 3.657345 q 0.256117,0 0.450766,0.215138 0.194648,0.215138 0.194648,0.501989 v 3.944196 q 0,0.286851 -0.194648,0.501989 -0.194649,0.215138 -0.450766,0.215138 H 54.14052 q -0.256117,0 -0.450766,-0.215138 -0.194648,-0.215138 -0.194648,-0.501989 z m 3.011932,3.114378 v -2.274316 h -1.07569 v 2.274316 z"
         style="font-style:normal;font-variant:normal;font-weight:normal;font-stretch:normal;font-size:10.2446661px;font-family:'SF TransRobotics Condensed';-inkscape-font-specification:'SF TransRobotics Condensed, ';font-variant-ligatures:normal;font-variant-caps:normal;font-variant-numeric:normal;font-feature-settings:normal;text-align:start;letter-spacing:0.26458332px;writing-mode:lr-tb;text-anchor:start;stroke-width:0.32014582px"
         id="path1481"
         inkscape:connector-curvature="0" />
      <path
         d="m 59.362244,87.643805 h 1.936241 v 3.831505 h 1.07569 v -3.831505 h 1.936242 v 5.37845 h -4.302759 q -0.256117,0 -0.450766,-0.215138 -0.194648,-0.215138 -0.194648,-0.501989 z"
         style="font-style:normal;font-variant:normal;font-weight:normal;font-stretch:normal;font-size:10.2446661px;font-family:'SF TransRobotics Condensed';-inkscape-font-specification:'SF TransRobotics Condensed, ';font-variant-ligatures:normal;font-variant-caps:normal;font-variant-numeric:normal;font-feature-settings:normal;text-align:start;letter-spacing:0.26458332px;writing-mode:lr-tb;text-anchor:start;stroke-width:0.32014582px"
         id="path1483"
         inkscape:connector-curvature="0" />
      <path
         d="m 65.229378,88.360932 q 0,-0.286851 0.194648,-0.501989 0.194649,-0.215138 0.450766,-0.215138 h 3.770037 l -0.645414,1.557189 H 67.16562 v 3.821261 h -1.936242 z"
         style="font-style:normal;font-variant:normal;font-weight:normal;font-stretch:normal;font-size:10.2446661px;font-family:'SF TransRobotics Condensed';-inkscape-font-specification:'SF TransRobotics Condensed, ';font-variant-ligatures:normal;font-variant-caps:normal;font-variant-numeric:normal;font-feature-settings:normal;text-align:start;letter-spacing:0.26458332px;writing-mode:lr-tb;text-anchor:start;stroke-width:0.32014582px"
         id="path1485"
         inkscape:connector-curvature="0" />
      <path
         d="m 70.73619,88.842431 h -0.532723 v -1.198626 h 0.532723 v -1.792816 h 1.936241 v 1.792816 h 1.065446 v 1.198626 h -1.065446 v 2.622635 h 1.065446 l 0.645414,1.557189 h -3.001687 q -0.256117,0 -0.450766,-0.215138 -0.194648,-0.215138 -0.194648,-0.501989 z"
         style="font-style:normal;font-variant:normal;font-weight:normal;font-stretch:normal;font-size:10.2446661px;font-family:'SF TransRobotics Condensed';-inkscape-font-specification:'SF TransRobotics Condensed, ';font-variant-ligatures:normal;font-variant-caps:normal;font-variant-numeric:normal;font-feature-settings:normal;text-align:start;letter-spacing:0.26458332px;writing-mode:lr-tb;text-anchor:start;stroke-width:0.32014582px"
         id="path1487"
         inkscape:connector-curvature="0" />
    </g>
    <g
       aria-label="Robots"
       style="font-style:normal;font-weight:normal;font-size:12.80583286px;line-height:125%;font-family:sans-serif;letter-spacing:0px;word-spacing:0px;display:inline;fill:#000000;fill-opacity:1;stroke:none;stroke-width:0.32014582px;stroke-linecap:butt;stroke-linejoin:miter;stroke-opacity:1"
       id="text884">
      <path
         d="m 82.135426,87.781976 q 0,0.368808 -0.266362,0.63517 -0.256116,0.256116 -0.624924,0.256116 -0.184404,0 -0.553212,-0.01024 -0.368808,-0.01024 -0.553212,-0.01024 -0.737616,0 -0.737616,0.0922 0,0.07171 0.112691,0.235627 l 2.530433,3.554899 q 0.08196,0.112692 0.08196,0.225383 0,0.143425 -0.15367,0.266361 -0.143425,0.122936 -0.286851,0.122936 -0.163914,0 -0.276606,-0.163914 l -2.960708,-4.14909 q -0.163915,-0.225383 -0.163915,-0.409787 0,-0.512233 0.717127,-0.512233 h 2.253826 q 0.06147,0 0.112692,-0.0922 v -0.993733 q 0,-0.143425 -0.133181,-0.143425 h -3.933952 q -0.358563,0 -0.358563,0.348319 v 2.76606 q 0,0.174159 0.286851,0.389297 0.297095,0.204893 0.297095,0.665903 v 1.659636 q 0,0.430276 -0.225383,0.542967 -0.13318,0.06147 -0.61468,0.06147 -0.512233,0 -0.512233,-0.358563 v -6.474629 q 0,-0.368808 0.358563,-0.368808 h 4.712547 q 0.368808,0 0.624924,0.266361 0.266362,0.266362 0.266362,0.63517 z"
         style="font-style:normal;font-variant:normal;font-weight:normal;font-stretch:normal;font-size:10.2446661px;font-family:'DestructoBeam BB';-inkscape-font-specification:'DestructoBeam BB';letter-spacing:0.26458332px;stroke-width:0.32014582px"
         id="path1456"
         inkscape:connector-curvature="0" />
      <path
         d="m 90.30761,90.763174 q 0,0.962999 -0.686392,1.649391 -0.676148,0.686393 -1.649392,0.686393 h -2.509943 q -0.973243,0 -1.649391,-0.676148 -0.665903,-0.686393 -0.665903,-1.659636 v -2.509943 q 0,-0.962999 0.676148,-1.639147 0.676148,-0.686392 1.639146,-0.686392 h 2.509943 q 0.962999,0 1.649392,0.686392 0.686392,0.686393 0.686392,1.639147 z m -0.74786,-0.758105 q 0,-0.286851 -0.01024,-0.870797 -0.01024,-0.583946 -0.01024,-0.870796 0,-0.655659 -0.46101,-1.106424 -0.46101,-0.46101 -1.116668,-0.46101 h -2.489454 q -0.594191,0 -1.085935,0.44052 -0.481499,0.430276 -0.481499,1.024467 0,0.03073 -0.01025,0.522478 -0.01024,0.481499 -0.01024,0.758105 0,0.399542 0.04098,0.501989 0.01024,0.05122 0.163915,0.143425 0.174159,0.122936 0.266361,0.245872 0.133181,0.204894 0.133181,0.522478 v 0.809329 q 0,0.276606 0.05122,0.358563 0.05122,0.07171 0.32783,0.194649 0.28685,0.112691 0.604435,0.112691 h 2.489454 q 0.635169,0 1.085934,-0.420031 0.450766,-0.430276 0.491744,-1.065445 0.02049,-0.286851 0.02049,-0.840063 z"
         style="font-style:normal;font-variant:normal;font-weight:normal;font-stretch:normal;font-size:10.2446661px;font-family:'DestructoBeam BB';-inkscape-font-specification:'DestructoBeam BB';letter-spacing:0.26458332px;stroke-width:0.32014582px"
         id="path1458"
         inkscape:connector-curvature="0" />
      <path
         d="m 97.48158,91.9618 q 0,0.481499 -0.327829,0.829818 -0.317585,0.338074 -0.799084,0.338074 h -4.476919 q -0.389297,0 -0.389297,-0.368808 v -4.978908 q 0,-0.379052 0.379052,-0.379052 0.389297,0 0.389297,0.379052 v 1.915753 q 0,0.225383 0.286851,0.481499 0.297095,0.256117 0.297095,0.676148 v 1.07569 q 0,0.430276 0.358564,0.430276 h 3.20658 q 0.266362,-0.03073 0.30734,-0.338074 v -1.772327 q 0,-0.256117 -0.28685,-0.327829 h -2.909486 q -0.542967,0 -0.542967,-0.389298 0,-0.194648 0.184404,-0.297095 l 2.130891,-1.188381 q 0.338074,-0.184404 0.46101,-0.32783 0.184404,-0.194648 0.184404,-0.522478 0,-0.184404 -0.102447,-0.327829 -0.102447,-0.15367 -0.276606,-0.15367 h -3.698325 q -0.348318,0 -0.348318,-0.389297 0,-0.389298 0.348318,-0.389298 h 3.729059 q 0.338074,0 0.727371,0.286851 0.399542,0.317585 0.399542,0.983488 0,0.368808 -0.0922,0.706882 -0.0922,0.327829 -0.778594,0.727371 -0.676148,0.389298 -0.676148,0.440521 0,0.06147 0.235627,0.08196 0.163915,0.01024 0.491744,0 0.46101,-0.01024 0.46101,-0.01024 0.471255,0 0.799084,0.348318 0.327829,0.348319 0.327829,0.819574 z"
         style="font-style:normal;font-variant:normal;font-weight:normal;font-stretch:normal;font-size:10.2446661px;font-family:'DestructoBeam BB';-inkscape-font-specification:'DestructoBeam BB';letter-spacing:0.26458332px;stroke-width:0.32014582px"
         id="path1460"
         inkscape:connector-curvature="0" />
      <path
         d="m 105.66353,90.763174 q 0,0.962999 -0.68639,1.649391 -0.67615,0.686393 -1.64939,0.686393 h -2.50995 q -0.973241,0 -1.649389,-0.676148 -0.665903,-0.686393 -0.665903,-1.659636 v -2.509943 q 0,-0.962999 0.676148,-1.639147 0.676148,-0.686392 1.639144,-0.686392 h 2.50995 q 0.96299,0 1.64939,0.686392 0.68639,0.686393 0.68639,1.639147 z m -0.74786,-0.758105 q 0,-0.286851 -0.0102,-0.870797 -0.0102,-0.583946 -0.0102,-0.870796 0,-0.655659 -0.46101,-1.106424 -0.46101,-0.46101 -1.11667,-0.46101 h -2.48945 q -0.59419,0 -1.085937,0.44052 -0.4815,0.430276 -0.4815,1.024467 0,0.03073 -0.01024,0.522478 -0.01025,0.481499 -0.01025,0.758105 0,0.399542 0.04098,0.501989 0.01024,0.05122 0.163914,0.143425 0.17416,0.122936 0.266362,0.245872 0.13318,0.204894 0.13318,0.522478 v 0.809329 q 0,0.276606 0.05122,0.358563 0.05122,0.07171 0.327831,0.194649 0.28685,0.112691 0.60444,0.112691 h 2.48945 q 0.63517,0 1.08594,-0.420031 0.45076,-0.430276 0.49174,-1.065445 0.0205,-0.286851 0.0205,-0.840063 z"
         style="font-style:normal;font-variant:normal;font-weight:normal;font-stretch:normal;font-size:10.2446661px;font-family:'DestructoBeam BB';-inkscape-font-specification:'DestructoBeam BB';letter-spacing:0.26458332px;stroke-width:0.32014582px"
         id="path1462"
         inkscape:connector-curvature="0" />
      <path
         d="m 111.79254,86.306744 q 0,0.379053 -0.47125,0.379053 h -1.4445 q -0.29709,0 -0.29709,0.338074 v 2.960709 q 0.32783,0.204893 0.43027,0.338074 0.14343,0.194648 0.14343,0.532722 v 1.659636 q 0,0.368808 -0.14343,0.491744 -0.14342,0.112691 -0.51223,0.112691 -0.69664,0 -0.69664,-0.553212 v -5.562853 q 0,-0.317585 -0.30734,-0.317585 h -0.79908 q -0.27661,0 -0.32783,0.379053 -0.041,0.379052 -0.34832,0.379052 -0.37905,0 -0.36881,-0.501988 0,-0.07171 0,-0.194649 -0.0102,-0.143425 -0.0102,-0.204893 0,-0.604436 0.52247,-0.604436 h 4.15934 q 0.47125,0 0.47125,0.368808 z"
         style="font-style:normal;font-variant:normal;font-weight:normal;font-stretch:normal;font-size:10.2446661px;font-family:'DestructoBeam BB';-inkscape-font-specification:'DestructoBeam BB';letter-spacing:0.26458332px;stroke-width:0.32014582px"
         id="path1464"
         inkscape:connector-curvature="0" />
      <path
         d="m 118.27196,91.552013 q 0,0.08196 -0.0103,0.245872 -0.0102,0.163915 -0.0102,0.245872 0,0.430276 -0.34832,0.758106 -0.33807,0.317584 -0.76835,0.317584 l -4.00566,0.01025 q -0.54297,0 -0.54297,-0.76835 0,-0.327829 0.12294,-0.450765 0.13318,-0.133181 0.47125,-0.133181 H 114.84 q 0.34832,0 0.53272,0.133181 0.14342,0.102446 0.33807,0.430276 h 1.38303 q 0.3893,0 0.3893,-0.542968 0,-0.327829 -0.16391,-0.450765 l -4.48717,-3.237314 q -0.20489,-0.15367 -0.20489,-0.563457 0,-0.0922 0.0102,-0.266361 0.0102,-0.17416 0.0102,-0.266362 0,-0.430276 0.33807,-0.74786 0.34832,-0.32783 0.7786,-0.32783 h 4.10811 q 0.37905,0 0.37905,0.389298 0,0.389297 -0.37905,0.389297 h -4.07738 q -0.36881,0 -0.36881,0.61468 0,0.245872 0.11269,0.327829 l 4.4257,3.175847 q 0.30734,0.215138 0.30734,0.717126 z"
         style="font-style:normal;font-variant:normal;font-weight:normal;font-stretch:normal;font-size:10.2446661px;font-family:'DestructoBeam BB';-inkscape-font-specification:'DestructoBeam BB';letter-spacing:0.26458332px;stroke-width:0.32014582px"
         id="path1466"
         inkscape:connector-curvature="0" />
    </g>
    <path
       style="display:inline;fill:#000000;fill-opacity:1;fill-rule:evenodd;stroke:none;stroke-width:0;stroke-miterlimit:4;stroke-dasharray:none;stroke-opacity:1"
       d="M 17.671388,93.839938 H 34.51871 l 0.334403,0.79106 -17.181725,-0.0465 z"
       id="rect923"
       inkscape:connector-curvature="0"
       sodipodi:nodetypes="ccccc" />
    <path
       style="display:inline;fill:#000000;fill-opacity:1;fill-rule:evenodd;stroke:none;stroke-width:0;stroke-miterlimit:4;stroke-dasharray:none;stroke-opacity:1"
       d="m 41.45163,93.840401 h 76.94841 v 0.79134 H 41.45163 Z"
       id="rect947"
       inkscape:connector-curvature="0" />
  </g>
</svg>
